<svg xmlns="http://www.w3.org/2000/svg" width="179.566" height="112.452" viewBox="0 0 179.566 112.452"><defs><style>.a{fill:#045a8d;}</style></defs><path class="a" d="M181.712,116.106C161.563,99.691,138.8,81.142,134.631,77.742c-.226-.185-20.589,8.152-20.589,8.152l-.2.084-.2.082-5.113,2.1a.8.8,0,0,0-.248.142c-.024.031-.048-.041-.048-.161l-.113-7.9a.411.411,0,0,0-.192-.322s-9.74-5.33-11.853-6.22-21.217-7.644-21.217-7.644a.449.449,0,0,0-.378.063L3.751,122.042v43.725H6V125.8l1.218-.861,6.535-4.211L16.3,120.7l1.035,7.914c.017-.118.026-.118.019,0,0,0,.537,34.985.683,44.49h3.282l-.871-57.492,10.539-7.43h3.135l2.76,8.537c.019-.118.036-.221.036-.229l0-.017-.01.25,1.648,61.759H43c-.26-18.7-1.025-71.017-1.128-77.971L57.723,89.335h5.385l6,12.344c.036-.113.065-.111.063.01l.373,76.795H76.01L74.646,69.224a.15.15,0,0,1,.207-.152L91.1,74.251c.113.038.3.111.4.161l12.447,5.866a.4.4,0,0,1,.2.318l1.3,97.887h10.2l-2.093-89a.339.339,0,0,1,.2-.3l18.71-7.43,2.692,96.725h6.723l-3.465-74.3c-.007-.12.077-.176.185-.125,0,0,.2.094.342.173,2.368,1.355,4.721,2.736,7.108,4.057a13.321,13.321,0,0,1,4.122,3.657,22.335,22.335,0,0,1,4.321,11.037c.289,2.279,3.077,49.148,3.258,52.225l.007.091a.277.277,0,0,0,.262.164l9.134-.043a.212.212,0,0,0,.207-.221l-2.9-56.845c0-.12.077-.178.188-.123,0,0,.137.065.294.152,1.535.859,3.053,1.74,4.6,2.57a8.848,8.848,0,0,1,2.856,2.478,14.4,14.4,0,0,1,2.837,7.276c.229,2,2.182,32.339,2.377,35.623a1.569,1.569,0,0,0,.034.241.285.285,0,0,0,.265.214l5.407.173Z" transform="translate(-3.751 -66.031)"/></svg>